# xmcd
#
# Track frame offsets: 
#        150
#        26274
#        49802
#        63695
#        87302
#        109662
#        130761
#        148899
#        169173
#        194877
#        223769
#
# Disc length: 3258 seconds
#
# Revision: 14
# Processed by: cddbd v1.5.2PL0 Copyright (c) Steve Scherf et al.
# Submitted via: ExactAudioCopyFreeDBPlugin 1.0
#
DISCID=aa0cb80b
DTITLE=Dixie Chicks - Top Of The World Tour - Live [CD 2)
DYEAR=2003
DGENRE=Country
TTITLE0=A Home
TTITLE1=Truth No. 2
TTITLE2=If I Fall You're Going Down With Me
TTITLE3=Mississippi
TTITLE4=Cowboy Take Me Away
TTITLE5=Godspeed (Sweet Dreams)
TTITLE6=Landslide
TTITLE7=Ready To Run
TTITLE8=Wide Open Spaces
TTITLE9=Top Of The World
TTITLE10=Sin Wagon
EXTD=
EXTT0=
EXTT1=
EXTT2=
EXTT3=
EXTT4=
EXTT5=
EXTT6=
EXTT7=
EXTT8=
EXTT9=
EXTT10=
PLAYORDER=
